<svg width="181" height="184" viewBox="0 0 181 184" fill="none" xmlns="http://www.w3.org/2000/svg">
<path d="M8.048 145V140.644H20.756V145H8.048ZM8.048 124.156V119.8H20.756V124.156H8.048ZM8.048 133.768V129.484H20.036V133.768H8.048ZM4.736 119.8H9.704V145H4.736V119.8ZM28.7098 139.852C28.7098 140.332 28.8298 140.752 29.0698 141.112C29.3098 141.448 29.6338 141.712 30.0418 141.904C30.4738 142.072 30.9418 142.156 31.4458 142.156C32.1658 142.156 32.8138 142.012 33.3898 141.724C33.9658 141.412 34.4338 140.98 34.7938 140.428C35.1538 139.852 35.3338 139.168 35.3338 138.376L35.9098 140.536C35.9098 141.592 35.6098 142.48 35.0098 143.2C34.4338 143.92 33.6778 144.46 32.7418 144.82C31.8298 145.18 30.8698 145.36 29.8618 145.36C28.8298 145.36 27.8698 145.156 26.9818 144.748C26.0938 144.34 25.3738 143.752 24.8218 142.984C24.2938 142.192 24.0298 141.232 24.0298 140.104C24.0298 138.496 24.5938 137.224 25.7218 136.288C26.8498 135.352 28.4458 134.884 30.5098 134.884C31.5658 134.884 32.4898 134.992 33.2818 135.208C34.0978 135.424 34.7818 135.688 35.3338 136C35.8858 136.312 36.2818 136.612 36.5218 136.9V139.06C35.8738 138.58 35.1418 138.22 34.3258 137.98C33.5338 137.74 32.6938 137.62 31.8058 137.62C31.0858 137.62 30.4978 137.716 30.0418 137.908C29.5858 138.076 29.2498 138.328 29.0338 138.664C28.8178 138.976 28.7098 139.372 28.7098 139.852ZM26.9098 133.12L25.1818 129.952C26.0458 129.496 27.1018 129.064 28.3498 128.656C29.5978 128.224 30.9898 128.008 32.5258 128.008C33.9418 128.008 35.2018 128.212 36.3058 128.62C37.4098 129.028 38.2738 129.628 38.8978 130.42C39.5218 131.188 39.8338 132.136 39.8338 133.264V145H35.3338V134.236C35.3338 133.78 35.2618 133.396 35.1178 133.084C34.9738 132.748 34.7458 132.472 34.4338 132.256C34.1458 132.04 33.7978 131.884 33.3898 131.788C32.9818 131.692 32.5258 131.644 32.0218 131.644C31.2538 131.644 30.5218 131.728 29.8258 131.896C29.1298 132.064 28.5298 132.268 28.0258 132.508C27.5218 132.748 27.1498 132.952 26.9098 133.12ZM44.9992 139.276C45.6952 139.924 46.3432 140.452 46.9432 140.86C47.5432 141.244 48.1072 141.532 48.6352 141.724C49.1872 141.916 49.7032 142.012 50.1832 142.012C50.8072 142.012 51.2872 141.88 51.6232 141.616C51.9592 141.328 52.1272 140.944 52.1272 140.464C52.1272 140.032 51.9832 139.672 51.6952 139.384C51.4312 139.072 51.0352 138.796 50.5072 138.556C49.9792 138.316 49.3072 138.064 48.4912 137.8C47.7232 137.512 46.9792 137.176 46.2592 136.792C45.5392 136.384 44.9392 135.856 44.4592 135.208C44.0032 134.536 43.7752 133.684 43.7752 132.652C43.7752 131.668 44.0392 130.84 44.5672 130.168C45.0952 129.472 45.8032 128.956 46.6912 128.62C47.6032 128.26 48.6112 128.08 49.7152 128.08C50.6512 128.08 51.5272 128.2 52.3432 128.44C53.1592 128.68 53.9152 129.004 54.6112 129.412C55.3072 129.796 55.9192 130.252 56.4472 130.78L54.3952 133.66C53.7952 133.012 53.0752 132.484 52.2352 132.076C51.4192 131.668 50.6152 131.464 49.8232 131.464C49.2952 131.464 48.8752 131.572 48.5632 131.788C48.2752 131.98 48.1312 132.28 48.1312 132.688C48.1312 133.048 48.2752 133.372 48.5632 133.66C48.8752 133.924 49.3072 134.164 49.8592 134.38C50.4352 134.596 51.0832 134.86 51.8032 135.172C52.6912 135.508 53.5072 135.892 54.2512 136.324C55.0192 136.732 55.6312 137.248 56.0872 137.872C56.5432 138.496 56.7712 139.312 56.7712 140.32C56.7712 141.976 56.2312 143.272 55.1512 144.208C54.0712 145.12 52.5832 145.576 50.6872 145.576C49.5112 145.576 48.4312 145.42 47.4472 145.108C46.4872 144.796 45.6112 144.388 44.8192 143.884C44.0512 143.356 43.3552 142.792 42.7312 142.192L44.9992 139.276ZM75.5837 128.44L64.7837 152.92H59.9957L64.1717 143.344L57.2957 128.44H62.4797L67.8077 141.616L65.5037 141.544L70.7237 128.44H75.5837Z" fill="#3D6376"/>
<path d="M78.1071 119.8H83.3271V145H78.1071V119.8ZM99.0194 134.92C99.0194 133.816 98.8034 132.976 98.3714 132.4C97.9394 131.824 97.2434 131.536 96.2834 131.536C95.6354 131.536 95.0594 131.68 94.5554 131.968C94.0514 132.232 93.6674 132.616 93.4034 133.12C93.1394 133.624 93.0074 134.224 93.0074 134.92V145H88.3274V128.44H93.0074V130.96C93.5114 130.024 94.1714 129.316 94.9874 128.836C95.8274 128.332 96.8354 128.08 98.0114 128.08C99.9794 128.08 101.443 128.644 102.403 129.772C103.363 130.876 103.843 132.424 103.843 134.416V145H99.0194V134.92ZM109.265 139.276C109.961 139.924 110.609 140.452 111.209 140.86C111.809 141.244 112.373 141.532 112.901 141.724C113.453 141.916 113.969 142.012 114.449 142.012C115.073 142.012 115.553 141.88 115.889 141.616C116.225 141.328 116.393 140.944 116.393 140.464C116.393 140.032 116.249 139.672 115.961 139.384C115.697 139.072 115.301 138.796 114.773 138.556C114.245 138.316 113.573 138.064 112.757 137.8C111.989 137.512 111.245 137.176 110.525 136.792C109.805 136.384 109.205 135.856 108.725 135.208C108.269 134.536 108.041 133.684 108.041 132.652C108.041 131.668 108.305 130.84 108.833 130.168C109.361 129.472 110.069 128.956 110.957 128.62C111.869 128.26 112.877 128.08 113.981 128.08C114.917 128.08 115.793 128.2 116.609 128.44C117.425 128.68 118.181 129.004 118.877 129.412C119.573 129.796 120.185 130.252 120.713 130.78L118.661 133.66C118.061 133.012 117.341 132.484 116.501 132.076C115.685 131.668 114.881 131.464 114.089 131.464C113.561 131.464 113.141 131.572 112.829 131.788C112.541 131.98 112.397 132.28 112.397 132.688C112.397 133.048 112.541 133.372 112.829 133.66C113.141 133.924 113.573 134.164 114.125 134.38C114.701 134.596 115.349 134.86 116.069 135.172C116.957 135.508 117.773 135.892 118.517 136.324C119.285 136.732 119.897 137.248 120.353 137.872C120.809 138.496 121.037 139.312 121.037 140.32C121.037 141.976 120.497 143.272 119.417 144.208C118.337 145.12 116.849 145.576 114.953 145.576C113.777 145.576 112.697 145.42 111.713 145.108C110.753 144.796 109.877 144.388 109.085 143.884C108.317 143.356 107.621 142.792 106.997 142.192L109.265 139.276ZM129.081 138.52C129.081 139.6 129.297 140.44 129.729 141.04C130.161 141.616 130.857 141.904 131.817 141.904C132.489 141.904 133.065 141.772 133.545 141.508C134.049 141.22 134.433 140.824 134.697 140.32C134.985 139.816 135.129 139.216 135.129 138.52V128.44H139.773V145H135.129V142.48C134.601 143.416 133.929 144.136 133.113 144.64C132.297 145.12 131.301 145.36 130.125 145.36C128.157 145.36 126.681 144.796 125.697 143.668C124.737 142.54 124.257 140.992 124.257 139.024V128.44H129.081V138.52ZM148.939 128.44V145H144.367V128.44H148.939ZM153.799 133.3C153.487 133.012 153.163 132.796 152.827 132.652C152.515 132.484 152.119 132.4 151.639 132.4C151.063 132.4 150.571 132.556 150.163 132.868C149.755 133.18 149.443 133.624 149.227 134.2C149.035 134.752 148.939 135.424 148.939 136.216L147.643 134.92C147.643 133.6 147.895 132.436 148.399 131.428C148.903 130.396 149.563 129.58 150.379 128.98C151.195 128.356 152.035 128.044 152.899 128.044C153.499 128.044 154.063 128.152 154.591 128.368C155.143 128.584 155.587 128.908 155.923 129.34L153.799 133.3ZM165.679 145.36C163.879 145.36 162.307 145 160.963 144.28C159.619 143.56 158.575 142.564 157.831 141.292C157.111 139.996 156.75 138.472 156.75 136.72C156.75 134.944 157.111 133.42 157.831 132.148C158.575 130.852 159.619 129.856 160.963 129.16C162.307 128.44 163.891 128.08 165.715 128.08C167.539 128.08 169.087 128.416 170.359 129.088C171.655 129.736 172.639 130.696 173.311 131.968C173.983 133.216 174.319 134.728 174.319 136.504C174.319 136.72 174.307 136.948 174.283 137.188C174.283 137.428 174.271 137.62 174.247 137.764H159.415V134.884H170.179L168.919 136.54C169.015 136.396 169.099 136.204 169.171 135.964C169.267 135.7 169.315 135.484 169.315 135.316C169.315 134.5 169.159 133.804 168.847 133.228C168.559 132.652 168.139 132.196 167.587 131.86C167.035 131.524 166.387 131.356 165.643 131.356C164.731 131.356 163.963 131.56 163.339 131.968C162.739 132.352 162.271 132.94 161.935 133.732C161.623 134.5 161.455 135.46 161.431 136.612C161.431 137.716 161.587 138.652 161.899 139.42C162.235 140.188 162.727 140.776 163.375 141.184C164.023 141.592 164.803 141.796 165.715 141.796C166.747 141.796 167.623 141.604 168.343 141.22C169.087 140.812 169.699 140.212 170.179 139.42L174.247 140.68C173.383 142.24 172.231 143.416 170.791 144.208C169.375 144.976 167.671 145.36 165.679 145.36Z" fill="#3F7AD3"/>
<g filter="url(#filter0_d_327_70)">
<rect x="44" y="21" width="79" height="76" rx="17" fill="white"/>
</g>
<path d="M73.048 72V67.644H85.756V72H73.048ZM73.048 51.156V46.8H85.756V51.156H73.048ZM73.048 60.768V56.484H85.036V60.768H73.048ZM69.736 46.8H74.704V72H69.736V46.8Z" fill="#3D6376"/>
<path d="M90.8298 46.8H96.0498V72H90.8298V46.8Z" fill="#3F7AD3"/>
<defs>
<filter id="filter0_d_327_70" x="19" y="0" width="129" height="126" filterUnits="userSpaceOnUse" color-interpolation-filters="sRGB">
<feFlood flood-opacity="0" result="BackgroundImageFix"/>
<feColorMatrix in="SourceAlpha" type="matrix" values="0 0 0 0 0 0 0 0 0 0 0 0 0 0 0 0 0 0 127 0" result="hardAlpha"/>
<feOffset dy="4"/>
<feGaussianBlur stdDeviation="12.5"/>
<feComposite in2="hardAlpha" operator="out"/>
<feColorMatrix type="matrix" values="0 0 0 0 0 0 0 0 0 0 0 0 0 0 0 0 0 0 0.15 0"/>
<feBlend mode="normal" in2="BackgroundImageFix" result="effect1_dropShadow_327_70"/>
<feBlend mode="normal" in="SourceGraphic" in2="effect1_dropShadow_327_70" result="shape"/>
</filter>
</defs>
</svg>
